<mxfile host="app.diagrams.net" modified="2023-05-22T15:03:28.619Z" agent="Mozilla/5.0 (Macintosh; Intel Mac OS X 10_15_7) AppleWebKit/605.1.15 (KHTML, like Gecko) Version/15.6 Safari/605.1.15" version="21.3.2" etag="7prcb2GU4cfn4QXFPtVe" type="github">
  <diagram name="Page-1" id="0UwgXtNstOicyAh1NJOG">
    <mxGraphModel>
      <root>
        <mxCell id="0" />
        <mxCell id="1" parent="0" />
      </root>
    </mxGraphModel>
  </diagram>
</mxfile>
